<mxfile host="app.diagrams.net" agent="Mozilla/5.0 (Windows NT 10.0; Win64; x64) AppleWebKit/537.36 (KHTML, like Gecko) Chrome/130.0.0.0 YaBrowser/24.12.0.0 Safari/537.36" version="26.0.10">
  <diagram name="Page-1" id="822b0af5-4adb-64df-f703-e8dfc1f81529">
    <mxGraphModel dx="2074" dy="1151" grid="1" gridSize="10" guides="1" tooltips="1" connect="1" arrows="1" fold="1" page="1" pageScale="1" pageWidth="1100" pageHeight="850" background="none" math="0" shadow="0">
      <root>
        <mxCell id="0" />
        <mxCell id="1" parent="0" />
        <mxCell id="4wvoW-RFQ9jsFR5zo35Z-1" value="" style="verticalLabelPosition=bottom;sketch=0;aspect=fixed;html=1;verticalAlign=top;strokeColor=none;align=center;outlineConnect=0;shape=mxgraph.citrix.globe;" vertex="1" parent="1">
          <mxGeometry x="460" y="50" width="78.5" height="75" as="geometry" />
        </mxCell>
        <mxCell id="4wvoW-RFQ9jsFR5zo35Z-2" value="" style="verticalLabelPosition=bottom;sketch=0;aspect=fixed;html=1;verticalAlign=top;strokeColor=none;align=center;outlineConnect=0;shape=mxgraph.citrix.license_server;" vertex="1" parent="1">
          <mxGeometry x="467" y="170" width="65" height="85" as="geometry" />
        </mxCell>
        <mxCell id="4wvoW-RFQ9jsFR5zo35Z-3" value="" style="endArrow=none;html=1;rounded=0;" edge="1" parent="1" source="4wvoW-RFQ9jsFR5zo35Z-2" target="4wvoW-RFQ9jsFR5zo35Z-1">
          <mxGeometry width="50" height="50" relative="1" as="geometry">
            <mxPoint x="530" y="160" as="sourcePoint" />
            <mxPoint x="580" y="110" as="targetPoint" />
          </mxGeometry>
        </mxCell>
        <mxCell id="4wvoW-RFQ9jsFR5zo35Z-4" value="" style="endArrow=classic;startArrow=classic;html=1;rounded=0;" edge="1" parent="1" source="4wvoW-RFQ9jsFR5zo35Z-5" target="4wvoW-RFQ9jsFR5zo35Z-2">
          <mxGeometry width="50" height="50" relative="1" as="geometry">
            <mxPoint x="380" y="350" as="sourcePoint" />
            <mxPoint x="430" y="300" as="targetPoint" />
          </mxGeometry>
        </mxCell>
        <mxCell id="4wvoW-RFQ9jsFR5zo35Z-5" value="" style="fontColor=#0066CC;verticalAlign=top;verticalLabelPosition=bottom;labelPosition=center;align=center;html=1;outlineConnect=0;fillColor=#CCCCCC;strokeColor=#6881B3;gradientColor=none;gradientDirection=north;strokeWidth=2;shape=mxgraph.networks.pc;" vertex="1" parent="1">
          <mxGeometry x="150" y="400" width="100" height="70" as="geometry" />
        </mxCell>
        <mxCell id="4wvoW-RFQ9jsFR5zo35Z-6" value="" style="fontColor=#0066CC;verticalAlign=top;verticalLabelPosition=bottom;labelPosition=center;align=center;html=1;outlineConnect=0;fillColor=#CCCCCC;strokeColor=#6881B3;gradientColor=none;gradientDirection=north;strokeWidth=2;shape=mxgraph.networks.pc;" vertex="1" parent="1">
          <mxGeometry x="320" y="400" width="100" height="70" as="geometry" />
        </mxCell>
        <mxCell id="4wvoW-RFQ9jsFR5zo35Z-7" value="" style="fontColor=#0066CC;verticalAlign=top;verticalLabelPosition=bottom;labelPosition=center;align=center;html=1;outlineConnect=0;fillColor=#CCCCCC;strokeColor=#6881B3;gradientColor=none;gradientDirection=north;strokeWidth=2;shape=mxgraph.networks.pc;" vertex="1" parent="1">
          <mxGeometry x="467" y="400" width="100" height="70" as="geometry" />
        </mxCell>
        <mxCell id="4wvoW-RFQ9jsFR5zo35Z-8" value="" style="fontColor=#0066CC;verticalAlign=top;verticalLabelPosition=bottom;labelPosition=center;align=center;html=1;outlineConnect=0;fillColor=#CCCCCC;strokeColor=#6881B3;gradientColor=none;gradientDirection=north;strokeWidth=2;shape=mxgraph.networks.pc;" vertex="1" parent="1">
          <mxGeometry x="610" y="400" width="100" height="70" as="geometry" />
        </mxCell>
        <mxCell id="4wvoW-RFQ9jsFR5zo35Z-9" value="" style="fontColor=#0066CC;verticalAlign=top;verticalLabelPosition=bottom;labelPosition=center;align=center;html=1;outlineConnect=0;fillColor=#CCCCCC;strokeColor=#6881B3;gradientColor=none;gradientDirection=north;strokeWidth=2;shape=mxgraph.networks.pc;" vertex="1" parent="1">
          <mxGeometry x="760" y="400" width="100" height="70" as="geometry" />
        </mxCell>
        <mxCell id="4wvoW-RFQ9jsFR5zo35Z-10" value="" style="endArrow=classic;startArrow=classic;html=1;rounded=0;exitX=0.5;exitY=0.07;exitDx=0;exitDy=0;exitPerimeter=0;" edge="1" parent="1" source="4wvoW-RFQ9jsFR5zo35Z-6" target="4wvoW-RFQ9jsFR5zo35Z-2">
          <mxGeometry width="50" height="50" relative="1" as="geometry">
            <mxPoint x="257" y="410" as="sourcePoint" />
            <mxPoint x="477" y="247" as="targetPoint" />
          </mxGeometry>
        </mxCell>
        <mxCell id="4wvoW-RFQ9jsFR5zo35Z-11" value="" style="endArrow=classic;startArrow=classic;html=1;rounded=0;" edge="1" parent="1" source="4wvoW-RFQ9jsFR5zo35Z-7" target="4wvoW-RFQ9jsFR5zo35Z-2">
          <mxGeometry width="50" height="50" relative="1" as="geometry">
            <mxPoint x="267" y="420" as="sourcePoint" />
            <mxPoint x="487" y="257" as="targetPoint" />
          </mxGeometry>
        </mxCell>
        <mxCell id="4wvoW-RFQ9jsFR5zo35Z-12" value="" style="endArrow=classic;startArrow=classic;html=1;rounded=0;" edge="1" parent="1" source="4wvoW-RFQ9jsFR5zo35Z-8" target="4wvoW-RFQ9jsFR5zo35Z-2">
          <mxGeometry width="50" height="50" relative="1" as="geometry">
            <mxPoint x="277" y="430" as="sourcePoint" />
            <mxPoint x="497" y="267" as="targetPoint" />
          </mxGeometry>
        </mxCell>
        <mxCell id="4wvoW-RFQ9jsFR5zo35Z-13" value="" style="endArrow=classic;startArrow=classic;html=1;rounded=0;" edge="1" parent="1" source="4wvoW-RFQ9jsFR5zo35Z-9" target="4wvoW-RFQ9jsFR5zo35Z-2">
          <mxGeometry width="50" height="50" relative="1" as="geometry">
            <mxPoint x="287" y="440" as="sourcePoint" />
            <mxPoint x="507" y="277" as="targetPoint" />
          </mxGeometry>
        </mxCell>
      </root>
    </mxGraphModel>
  </diagram>
</mxfile>
